# xmcd
#
# Track frame offsets: 
#        150
#        19696
#        41916
#        61464
#
# Disc length: 1112 seconds
#
# Revision: 0
# Processed by: cddbd v1.5.2PL0 Copyright (c) Steve Scherf et al.
# Submitted via: ExactAudioCopyFreeDBPlugin 1.0
#
DISCID=30045604
DTITLE=松永ひと美 - 蝶々結び
DYEAR=2004
DGENRE=Country
TTITLE0=蝶々結び
TTITLE1=人生夢のれん
TTITLE2=蝶々結び <カラオケ>
TTITLE3=人生夢のれん <カラオケ>
EXTD=
EXTT0=
EXTT1=
EXTT2=
EXTT3=
PLAYORDER=
